<?xml version="1.0" encoding="UTF-8" standalone="no"?>
<!DOCTYPE svg PUBLIC "-//W3C//DTD SVG 1.1//EN" "http://www.w3.org/Graphics/SVG/1.1/DTD/svg11.dtd">
<!-- Generated by Microsoft Visio, SVG Export cube_map.svg Page-2 -->
<svg xmlns="http://www.w3.org/2000/svg" xmlns:xlink="http://www.w3.org/1999/xlink" xmlns:ev="http://www.w3.org/2001/xml-events"
		xmlns:v="http://schemas.microsoft.com/visio/2003/SVGExtensions/" width="6.65625in" height="5.00694in"
		viewBox="0 0 479.25 360.5" xml:space="preserve" color-interpolation-filters="sRGB" class="st8">
	<v:documentProperties v:langID="1033" v:viewMarkup="false">
		<v:userDefs>
			<v:ud v:nameU="msvSubprocessMaster" v:prompt="" v:val="VT4(Rectangle)"/>
			<v:ud v:nameU="msvNoAutoConnect" v:val="VT0(1):26"/>
		</v:userDefs>
	</v:documentProperties>

	<style type="text/css">
	<![CDATA[
		.st1 {fill:#1ba1e2;stroke:#ffffff;stroke-linecap:round;stroke-linejoin:round;stroke-width:0.5}
		.st2 {fill:#ffffff;font-family:URW Geometric;font-size:0.833336em}
		.st3 {font-size:1em}
		.st4 {stroke:none;stroke-linecap:round;stroke-linejoin:round;stroke-width:0.75}
		.st5 {fill:#000000;font-family:URW Geometric;font-size:1.32285em}
		.st6 {marker-end:url(#mrkr4-39);stroke:#000000;stroke-linecap:round;stroke-linejoin:round;stroke-width:0.5}
		.st7 {fill:#000000;fill-opacity:1;stroke:#000000;stroke-opacity:1;stroke-width:0.16556291390728}
		.st8 {fill:none;fill-rule:evenodd;font-size:12px;overflow:visible;stroke-linecap:square;stroke-miterlimit:3}
	]]>
	</style>

	<defs id="Markers">
		<g id="lend4">
			<path d="M 2 1 L 0 0 L 2 -1 L 2 1 " style="stroke:none"/>
		</g>
		<marker id="mrkr4-39" class="st7" v:arrowType="4" v:arrowSize="2" v:setback="12.08" refX="-12.08" orient="auto"
				markerUnits="strokeWidth" overflow="visible">
			<use xlink:href="#lend4" transform="scale(-6.04,-6.04) "/>
		</marker>
	</defs>
	<g v:mID="4" v:index="2" v:groupContext="foregroundPage">
		<v:userDefs>
			<v:ud v:nameU="msvThemeOrder" v:val="VT0(0):26"/>
		</v:userDefs>
		<title>Page-2</title>
		<v:pageProperties v:drawingScale="1" v:pageScale="1" v:drawingUnits="0" v:shadowOffsetX="9" v:shadowOffsetY="-9"/>
		<v:layer v:name="Connector" v:index="0"/>
		<g id="shape1-1" v:mID="1" v:groupContext="shape" transform="translate(29,-126.25)">
			<title>Square</title>
			<desc>-X FACE 1</desc>
			<v:userDefs>
				<v:ud v:nameU="visVersion" v:val="VT0(15):26"/>
			</v:userDefs>
			<v:textBlock v:margins="rect(4,4,4,4)"/>
			<v:textRect cx="54" cy="306.5" width="108" height="108"/>
			<rect x="0" y="252.5" width="108" height="108" class="st1"/>
			<text x="50.08" y="303.5" class="st2" v:langID="1033"><v:paragraph v:horizAlign="1"/><v:tabList/>-X<v:lf/><tspan
						x="40.28" dy="1.2em" class="st3">FACE 1</tspan></text>		</g>
		<g id="shape2-5" v:mID="2" v:groupContext="shape" transform="translate(137,-126.25)">
			<title>Square.2</title>
			<desc>+Z FACE 4</desc>
			<v:userDefs>
				<v:ud v:nameU="visVersion" v:val="VT0(15):26"/>
			</v:userDefs>
			<v:textBlock v:margins="rect(4,4,4,4)"/>
			<v:textRect cx="54" cy="306.5" width="108" height="108"/>
			<rect x="0" y="252.5" width="108" height="108" class="st1"/>
			<text x="48.68" y="303.5" class="st2" v:langID="1033"><v:paragraph v:horizAlign="1"/><v:tabList/>+Z<v:newlineChar/><tspan
						x="39.2" dy="1.2em" class="st3">FACE 4</tspan></text>		</g>
		<g id="shape3-9" v:mID="3" v:groupContext="shape" transform="translate(245,-126.25)">
			<title>Square.3</title>
			<desc>+X FACE 0</desc>
			<v:userDefs>
				<v:ud v:nameU="visVersion" v:val="VT0(15):26"/>
			</v:userDefs>
			<v:textBlock v:margins="rect(4,4,4,4)"/>
			<v:textRect cx="54" cy="306.5" width="108" height="108"/>
			<rect x="0" y="252.5" width="108" height="108" class="st1"/>
			<text x="48.57" y="303.5" class="st2" v:langID="1033"><v:paragraph v:horizAlign="1"/><v:tabList/>+X<v:newlineChar/><tspan
						x="38.93" dy="1.2em" class="st3">FACE 0</tspan></text>		</g>
		<g id="shape4-13" v:mID="4" v:groupContext="shape" transform="translate(353,-126.25)">
			<title>Square.4</title>
			<desc>-Z FACE 5</desc>
			<v:userDefs>
				<v:ud v:nameU="visVersion" v:val="VT0(15):26"/>
			</v:userDefs>
			<v:textBlock v:margins="rect(4,4,4,4)"/>
			<v:textRect cx="54" cy="306.5" width="108" height="108"/>
			<rect x="0" y="252.5" width="108" height="108" class="st1"/>
			<text x="50.18" y="303.5" class="st2" v:langID="1033"><v:paragraph v:horizAlign="1"/><v:tabList/>-Z<v:newlineChar/><tspan
						x="39.18" dy="1.2em" class="st3">FACE 5</tspan></text>		</g>
		<g id="shape5-17" v:mID="5" v:groupContext="shape" transform="translate(137,-234.25)">
			<title>Square.5</title>
			<desc>+Y FACE 2</desc>
			<v:userDefs>
				<v:ud v:nameU="visVersion" v:val="VT0(15):26"/>
			</v:userDefs>
			<v:textBlock v:margins="rect(4,4,4,4)"/>
			<v:textRect cx="54" cy="306.5" width="108" height="108"/>
			<rect x="0" y="252.5" width="108" height="108" class="st1"/>
			<text x="48.69" y="303.5" class="st2" v:langID="1033"><v:paragraph v:horizAlign="1"/><v:tabList/>+Y<v:newlineChar/><tspan
						x="39.38" dy="1.2em" class="st3">FACE 2</tspan></text>		</g>
		<g id="shape6-21" v:mID="6" v:groupContext="shape" transform="translate(137,-18.25)">
			<title>Square.6</title>
			<desc>-Y FACE 3</desc>
			<v:userDefs>
				<v:ud v:nameU="visVersion" v:val="VT0(15):26"/>
			</v:userDefs>
			<v:textBlock v:margins="rect(4,4,4,4)"/>
			<v:textRect cx="54" cy="306.5" width="108" height="108"/>
			<rect x="0" y="252.5" width="108" height="108" class="st1"/>
			<text x="50.19" y="303.5" class="st2" v:langID="1033"><v:paragraph v:horizAlign="1"/><v:tabList/>-Y<v:newlineChar/><tspan
						x="39.42" dy="1.2em" class="st3">FACE 3</tspan></text>		</g>
		<g id="group43-25" transform="translate(207.182,-83.5)" v:mID="43" v:groupContext="group">
			<title>Sheet.43</title>
			<g id="shape44-26" v:mID="44" v:groupContext="shape" transform="translate(3.13148,-23.6974)">
				<title>Sheet.44</title>
				<desc>u</desc>
				<v:textBlock v:margins="rect(0,0,0,0)"/>
				<v:textRect cx="6.30926" cy="350.974" width="12.62" height="19.0526"/>
				<path d="M12.62 341.45 L0 341.45 L0 360.5 L12.62 360.5 L12.62 341.45" class="st4"/>
				<text x="2.27" y="355.74" class="st5" v:langID="1033"><v:paragraph v:horizAlign="1"/><v:tabList/>u</text>			</g>
			<g id="shape45-30" v:mID="45" v:groupContext="shape" transform="translate(25.1816,-1.19743)">
				<title>Sheet.45</title>
				<desc>v</desc>
				<v:textBlock v:margins="rect(0,0,0,0)"/>
				<v:textRect cx="6.31842" cy="350.974" width="12.64" height="19.0526"/>
				<path d="M12.64 341.45 L0 341.45 L0 360.5 L12.64 360.5 L12.64 341.45" class="st4"/>
				<text x="2.74" y="355.74" class="st5" v:langID="1033"><v:paragraph v:horizAlign="1"/><v:tabList/>v</text>			</g>
			<g id="shape46-34" v:mID="46" v:groupContext="shape" v:layerMember="0" transform="translate(0,-9)">
				<title>Dynamic connector</title>
				<path d="M9 360.5 L9 348.54" class="st6"/>
			</g>
			<g id="shape47-40" v:mID="47" v:groupContext="shape" v:layerMember="0" transform="translate(9,0)">
				<title>Dynamic connector.36</title>
				<path d="M0 351.5 L11.96 351.5" class="st6"/>
			</g>
		</g>
		<g id="group48-45" transform="translate(423.182,-191.5)" v:mID="48" v:groupContext="group">
			<title>Sheet.48</title>
			<g id="shape49-46" v:mID="49" v:groupContext="shape" transform="translate(3.13148,-23.6974)">
				<title>Sheet.49</title>
				<desc>u</desc>
				<v:textBlock v:margins="rect(0,0,0,0)"/>
				<v:textRect cx="6.30926" cy="350.974" width="12.62" height="19.0526"/>
				<path d="M12.62 341.45 L0 341.45 L0 360.5 L12.62 360.5 L12.62 341.45" class="st4"/>
				<text x="2.27" y="355.74" class="st5" v:langID="1033"><v:paragraph v:horizAlign="1"/><v:tabList/>u</text>			</g>
			<g id="shape50-50" v:mID="50" v:groupContext="shape" transform="translate(25.1816,-1.19743)">
				<title>Sheet.50</title>
				<desc>v</desc>
				<v:textBlock v:margins="rect(0,0,0,0)"/>
				<v:textRect cx="6.31842" cy="350.974" width="12.64" height="19.0526"/>
				<path d="M12.64 341.45 L0 341.45 L0 360.5 L12.64 360.5 L12.64 341.45" class="st4"/>
				<text x="2.74" y="355.74" class="st5" v:langID="1033"><v:paragraph v:horizAlign="1"/><v:tabList/>v</text>			</g>
			<g id="shape51-54" v:mID="51" v:groupContext="shape" v:layerMember="0" transform="translate(0,-9)">
				<title>Dynamic connector</title>
				<path d="M9 360.5 L9 348.54" class="st6"/>
			</g>
			<g id="shape52-59" v:mID="52" v:groupContext="shape" v:layerMember="0" transform="translate(9,0)">
				<title>Dynamic connector.36</title>
				<path d="M0 351.5 L11.96 351.5" class="st6"/>
			</g>
		</g>
		<g id="group53-64" transform="translate(315.182,-191.5)" v:mID="53" v:groupContext="group">
			<title>Sheet.53</title>
			<g id="shape54-65" v:mID="54" v:groupContext="shape" transform="translate(3.13148,-23.6974)">
				<title>Sheet.54</title>
				<desc>u</desc>
				<v:textBlock v:margins="rect(0,0,0,0)"/>
				<v:textRect cx="6.30926" cy="350.974" width="12.62" height="19.0526"/>
				<path d="M12.62 341.45 L0 341.45 L0 360.5 L12.62 360.5 L12.62 341.45" class="st4"/>
				<text x="2.27" y="355.74" class="st5" v:langID="1033"><v:paragraph v:horizAlign="1"/><v:tabList/>u</text>			</g>
			<g id="shape55-69" v:mID="55" v:groupContext="shape" transform="translate(25.1816,-1.19743)">
				<title>Sheet.55</title>
				<desc>v</desc>
				<v:textBlock v:margins="rect(0,0,0,0)"/>
				<v:textRect cx="6.31842" cy="350.974" width="12.64" height="19.0526"/>
				<path d="M12.64 341.45 L0 341.45 L0 360.5 L12.64 360.5 L12.64 341.45" class="st4"/>
				<text x="2.74" y="355.74" class="st5" v:langID="1033"><v:paragraph v:horizAlign="1"/><v:tabList/>v</text>			</g>
			<g id="shape56-73" v:mID="56" v:groupContext="shape" v:layerMember="0" transform="translate(0,-9)">
				<title>Dynamic connector</title>
				<path d="M9 360.5 L9 348.54" class="st6"/>
			</g>
			<g id="shape57-78" v:mID="57" v:groupContext="shape" v:layerMember="0" transform="translate(9,0)">
				<title>Dynamic connector.36</title>
				<path d="M0 351.5 L11.96 351.5" class="st6"/>
			</g>
		</g>
		<g id="group58-83" transform="translate(207.182,-191.5)" v:mID="58" v:groupContext="group">
			<title>Sheet.58</title>
			<g id="shape59-84" v:mID="59" v:groupContext="shape" transform="translate(3.13148,-23.6974)">
				<title>Sheet.59</title>
				<desc>u</desc>
				<v:textBlock v:margins="rect(0,0,0,0)"/>
				<v:textRect cx="6.30926" cy="350.974" width="12.62" height="19.0526"/>
				<path d="M12.62 341.45 L0 341.45 L0 360.5 L12.62 360.5 L12.62 341.45" class="st4"/>
				<text x="2.27" y="355.74" class="st5" v:langID="1033"><v:paragraph v:horizAlign="1"/><v:tabList/>u</text>			</g>
			<g id="shape60-88" v:mID="60" v:groupContext="shape" transform="translate(25.1816,-1.19743)">
				<title>Sheet.60</title>
				<desc>v</desc>
				<v:textBlock v:margins="rect(0,0,0,0)"/>
				<v:textRect cx="6.31842" cy="350.974" width="12.64" height="19.0526"/>
				<path d="M12.64 341.45 L0 341.45 L0 360.5 L12.64 360.5 L12.64 341.45" class="st4"/>
				<text x="2.74" y="355.74" class="st5" v:langID="1033"><v:paragraph v:horizAlign="1"/><v:tabList/>v</text>			</g>
			<g id="shape61-92" v:mID="61" v:groupContext="shape" v:layerMember="0" transform="translate(0,-9)">
				<title>Dynamic connector</title>
				<path d="M9 360.5 L9 348.54" class="st6"/>
			</g>
			<g id="shape62-97" v:mID="62" v:groupContext="shape" v:layerMember="0" transform="translate(9,0)">
				<title>Dynamic connector.36</title>
				<path d="M0 351.5 L11.96 351.5" class="st6"/>
			</g>
		</g>
		<g id="group63-102" transform="translate(207.182,-299.5)" v:mID="63" v:groupContext="group">
			<title>Sheet.63</title>
			<g id="shape64-103" v:mID="64" v:groupContext="shape" transform="translate(3.13148,-23.6974)">
				<title>Sheet.64</title>
				<desc>u</desc>
				<v:textBlock v:margins="rect(0,0,0,0)"/>
				<v:textRect cx="6.30926" cy="350.974" width="12.62" height="19.0526"/>
				<path d="M12.62 341.45 L0 341.45 L0 360.5 L12.62 360.5 L12.62 341.45" class="st4"/>
				<text x="2.27" y="355.74" class="st5" v:langID="1033"><v:paragraph v:horizAlign="1"/><v:tabList/>u</text>			</g>
			<g id="shape65-107" v:mID="65" v:groupContext="shape" transform="translate(25.1816,-1.19743)">
				<title>Sheet.65</title>
				<desc>v</desc>
				<v:textBlock v:margins="rect(0,0,0,0)"/>
				<v:textRect cx="6.31842" cy="350.974" width="12.64" height="19.0526"/>
				<path d="M12.64 341.45 L0 341.45 L0 360.5 L12.64 360.5 L12.64 341.45" class="st4"/>
				<text x="2.74" y="355.74" class="st5" v:langID="1033"><v:paragraph v:horizAlign="1"/><v:tabList/>v</text>			</g>
			<g id="shape66-111" v:mID="66" v:groupContext="shape" v:layerMember="0" transform="translate(0,-9)">
				<title>Dynamic connector</title>
				<path d="M9 360.5 L9 348.54" class="st6"/>
			</g>
			<g id="shape67-116" v:mID="67" v:groupContext="shape" v:layerMember="0" transform="translate(9,0)">
				<title>Dynamic connector.36</title>
				<path d="M0 351.5 L11.96 351.5" class="st6"/>
			</g>
		</g>
		<g id="group68-121" transform="translate(99.1816,-191.5)" v:mID="68" v:groupContext="group">
			<title>Sheet.68</title>
			<g id="shape69-122" v:mID="69" v:groupContext="shape" transform="translate(3.13148,-23.6974)">
				<title>Sheet.69</title>
				<desc>u</desc>
				<v:textBlock v:margins="rect(0,0,0,0)"/>
				<v:textRect cx="6.30926" cy="350.974" width="12.62" height="19.0526"/>
				<path d="M12.62 341.45 L0 341.45 L0 360.5 L12.62 360.5 L12.62 341.45" class="st4"/>
				<text x="2.27" y="355.74" class="st5" v:langID="1033"><v:paragraph v:horizAlign="1"/><v:tabList/>u</text>			</g>
			<g id="shape70-126" v:mID="70" v:groupContext="shape" transform="translate(25.1816,-1.19743)">
				<title>Sheet.70</title>
				<desc>v</desc>
				<v:textBlock v:margins="rect(0,0,0,0)"/>
				<v:textRect cx="6.31842" cy="350.974" width="12.64" height="19.0526"/>
				<path d="M12.64 341.45 L0 341.45 L0 360.5 L12.64 360.5 L12.64 341.45" class="st4"/>
				<text x="2.74" y="355.74" class="st5" v:langID="1033"><v:paragraph v:horizAlign="1"/><v:tabList/>v</text>			</g>
			<g id="shape71-130" v:mID="71" v:groupContext="shape" v:layerMember="0" transform="translate(0,-9)">
				<title>Dynamic connector</title>
				<path d="M9 360.5 L9 348.54" class="st6"/>
			</g>
			<g id="shape72-135" v:mID="72" v:groupContext="shape" v:layerMember="0" transform="translate(9,0)">
				<title>Dynamic connector.36</title>
				<path d="M0 351.5 L11.96 351.5" class="st6"/>
			</g>
		</g>
		<g id="group78-140" transform="translate(29,-126.25)" v:mID="78" v:groupContext="group">
			<title>Sheet.78</title>
			<g id="shape79-141" v:mID="79" v:groupContext="shape" transform="translate(3.13148,-27)">
				<title>Sheet.79</title>
				<desc>y</desc>
				<v:textBlock v:margins="rect(0,0,0,0)"/>
				<v:textRect cx="6.30926" cy="350.974" width="12.62" height="19.0526"/>
				<path d="M12.62 341.45 L0 341.45 L0 360.5 L12.62 360.5 L12.62 341.45" class="st4"/>
				<text x="2.81" y="355.74" class="st5" v:langID="1033"><v:paragraph v:horizAlign="1"/><v:tabList/>y</text>			</g>
			<g id="shape80-145" v:mID="80" v:groupContext="shape" transform="translate(25.1816,-1.19743)">
				<title>Sheet.80</title>
				<desc>z</desc>
				<v:textBlock v:margins="rect(0,0,0,0)"/>
				<v:textRect cx="6.31842" cy="350.974" width="12.64" height="19.0526"/>
				<path d="M12.64 341.45 L0 341.45 L0 360.5 L12.64 360.5 L12.64 341.45" class="st4"/>
				<text x="2.99" y="355.74" class="st5" v:langID="1033"><v:paragraph v:horizAlign="1"/><v:tabList/>z</text>			</g>
			<g id="shape81-149" v:mID="81" v:groupContext="shape" v:layerMember="0" transform="translate(0,-9)">
				<title>Dynamic connector</title>
				<path d="M9 360.5 L9 348.54" class="st6"/>
			</g>
			<g id="shape82-154" v:mID="82" v:groupContext="shape" v:layerMember="0" transform="translate(9,0)">
				<title>Dynamic connector.36</title>
				<path d="M0 351.5 L11.96 351.5" class="st6"/>
			</g>
		</g>
		<g id="group83-159" transform="translate(137,-126.25)" v:mID="83" v:groupContext="group">
			<title>Sheet.83</title>
			<g id="shape84-160" v:mID="84" v:groupContext="shape" transform="translate(3.13148,-27)">
				<title>Sheet.84</title>
				<desc>y</desc>
				<v:textBlock v:margins="rect(0,0,0,0)"/>
				<v:textRect cx="6.30926" cy="350.974" width="12.62" height="19.0526"/>
				<path d="M12.62 341.45 L0 341.45 L0 360.5 L12.62 360.5 L12.62 341.45" class="st4"/>
				<text x="2.81" y="355.74" class="st5" v:langID="1033"><v:paragraph v:horizAlign="1"/><v:tabList/>y</text>			</g>
			<g id="shape85-164" v:mID="85" v:groupContext="shape" transform="translate(25.1816,-1.19743)">
				<title>Sheet.85</title>
				<desc>x</desc>
				<v:textBlock v:margins="rect(0,0,0,0)"/>
				<v:textRect cx="6.31842" cy="350.974" width="12.64" height="19.0526"/>
				<path d="M12.64 341.45 L0 341.45 L0 360.5 L12.64 360.5 L12.64 341.45" class="st4"/>
				<text x="2.81" y="355.74" class="st5" v:langID="1033"><v:paragraph v:horizAlign="1"/><v:tabList/>x</text>			</g>
			<g id="shape86-168" v:mID="86" v:groupContext="shape" v:layerMember="0" transform="translate(0,-9)">
				<title>Dynamic connector</title>
				<path d="M9 360.5 L9 348.54" class="st6"/>
			</g>
			<g id="shape87-173" v:mID="87" v:groupContext="shape" v:layerMember="0" transform="translate(9,0)">
				<title>Dynamic connector.36</title>
				<path d="M0 351.5 L11.96 351.5" class="st6"/>
			</g>
		</g>
		<g id="group88-178" transform="translate(245,-126.25)" v:mID="88" v:groupContext="group">
			<title>Sheet.88</title>
			<g id="shape89-179" v:mID="89" v:groupContext="shape" transform="translate(3.13148,-27)">
				<title>Sheet.89</title>
				<desc>y</desc>
				<v:textBlock v:margins="rect(0,0,0,0)"/>
				<v:textRect cx="6.30926" cy="350.974" width="12.62" height="19.0526"/>
				<path d="M12.62 341.45 L0 341.45 L0 360.5 L12.62 360.5 L12.62 341.45" class="st4"/>
				<text x="2.81" y="355.74" class="st5" v:langID="1033"><v:paragraph v:horizAlign="1"/><v:tabList/>y</text>			</g>
			<g id="shape90-183" v:mID="90" v:groupContext="shape" transform="translate(27,-1.19743)">
				<title>Sheet.90</title>
				<desc>-z</desc>
				<v:textBlock v:margins="rect(0,0,0,0)"/>
				<v:textRect cx="6.31842" cy="350.974" width="12.64" height="19.0526"/>
				<path d="M12.64 341.45 L0 341.45 L0 360.5 L12.64 360.5 L12.64 341.45" class="st4"/>
				<text x="0.97" y="355.74" class="st5" v:langID="1033"><v:paragraph v:horizAlign="1"/><v:tabList/>-z</text>			</g>
			<g id="shape91-187" v:mID="91" v:groupContext="shape" v:layerMember="0" transform="translate(0,-9)">
				<title>Dynamic connector</title>
				<path d="M9 360.5 L9 348.54" class="st6"/>
			</g>
			<g id="shape92-192" v:mID="92" v:groupContext="shape" v:layerMember="0" transform="translate(9,0)">
				<title>Dynamic connector.36</title>
				<path d="M0 351.5 L11.96 351.5" class="st6"/>
			</g>
		</g>
		<g id="group93-197" transform="translate(355.682,-126.25)" v:mID="93" v:groupContext="group">
			<title>Sheet.93</title>
			<g id="shape94-198" v:mID="94" v:groupContext="shape" transform="translate(3.13148,-27)">
				<title>Sheet.94</title>
				<desc>y</desc>
				<v:textBlock v:margins="rect(0,0,0,0)"/>
				<v:textRect cx="6.30926" cy="350.974" width="12.62" height="19.0526"/>
				<path d="M12.62 341.45 L0 341.45 L0 360.5 L12.62 360.5 L12.62 341.45" class="st4"/>
				<text x="2.81" y="355.74" class="st5" v:langID="1033"><v:paragraph v:horizAlign="1"/><v:tabList/>y</text>			</g>
			<g id="shape95-202" v:mID="95" v:groupContext="shape" transform="translate(27,-1.19743)">
				<title>Sheet.95</title>
				<desc>-x</desc>
				<v:textBlock v:margins="rect(0,0,0,0)"/>
				<v:textRect cx="6.31842" cy="350.974" width="12.64" height="19.0526"/>
				<path d="M12.64 341.45 L0 341.45 L0 360.5 L12.64 360.5 L12.64 341.45" class="st4"/>
				<text x="0.79" y="355.74" class="st5" v:langID="1033"><v:paragraph v:horizAlign="1"/><v:tabList/>-x</text>			</g>
			<g id="shape96-206" v:mID="96" v:groupContext="shape" v:layerMember="0" transform="translate(0,-9)">
				<title>Dynamic connector</title>
				<path d="M9 360.5 L9 348.54" class="st6"/>
			</g>
			<g id="shape97-211" v:mID="97" v:groupContext="shape" v:layerMember="0" transform="translate(9,0)">
				<title>Dynamic connector.36</title>
				<path d="M0 351.5 L11.96 351.5" class="st6"/>
			</g>
		</g>
		<g id="group103-216" transform="translate(137,-18.25)" v:mID="103" v:groupContext="group">
			<title>Sheet.103</title>
			<g id="shape104-217" v:mID="104" v:groupContext="shape" transform="translate(3.13148,-27)">
				<title>Sheet.104</title>
				<desc>z</desc>
				<v:textBlock v:margins="rect(0,0,0,0)"/>
				<v:textRect cx="6.30926" cy="350.974" width="12.62" height="19.0526"/>
				<path d="M12.62 341.45 L0 341.45 L0 360.5 L12.62 360.5 L12.62 341.45" class="st4"/>
				<text x="2.98" y="355.74" class="st5" v:langID="1033"><v:paragraph v:horizAlign="1"/><v:tabList/>z</text>			</g>
			<g id="shape105-221" v:mID="105" v:groupContext="shape" transform="translate(25.1816,-1.19743)">
				<title>Sheet.105</title>
				<desc>x</desc>
				<v:textBlock v:margins="rect(0,0,0,0)"/>
				<v:textRect cx="6.31842" cy="350.974" width="12.64" height="19.0526"/>
				<path d="M12.64 341.45 L0 341.45 L0 360.5 L12.64 360.5 L12.64 341.45" class="st4"/>
				<text x="2.81" y="355.74" class="st5" v:langID="1033"><v:paragraph v:horizAlign="1"/><v:tabList/>x</text>			</g>
			<g id="shape106-225" v:mID="106" v:groupContext="shape" v:layerMember="0" transform="translate(0,-9)">
				<title>Dynamic connector</title>
				<path d="M9 360.5 L9 348.54" class="st6"/>
			</g>
			<g id="shape107-230" v:mID="107" v:groupContext="shape" v:layerMember="0" transform="translate(9,0)">
				<title>Dynamic connector.36</title>
				<path d="M0 351.5 L11.96 351.5" class="st6"/>
			</g>
		</g>
		<g id="group108-235" transform="translate(137,-234.25)" v:mID="108" v:groupContext="group">
			<title>Sheet.108</title>
			<g id="shape109-236" v:mID="109" v:groupContext="shape" transform="translate(3.13148,-27)">
				<title>Sheet.109</title>
				<desc>-z</desc>
				<v:textBlock v:margins="rect(0,0,0,0)"/>
				<v:textRect cx="6.30926" cy="350.974" width="12.62" height="19.0526"/>
				<path d="M12.62 341.45 L0 341.45 L0 360.5 L12.62 360.5 L12.62 341.45" class="st4"/>
				<text x="0.96" y="355.74" class="st5" v:langID="1033"><v:paragraph v:horizAlign="1"/><v:tabList/>-z</text>			</g>
			<g id="shape110-240" v:mID="110" v:groupContext="shape" transform="translate(25.1816,-1.19743)">
				<title>Sheet.110</title>
				<desc>x</desc>
				<v:textBlock v:margins="rect(0,0,0,0)"/>
				<v:textRect cx="6.31842" cy="350.974" width="12.64" height="19.0526"/>
				<path d="M12.64 341.45 L0 341.45 L0 360.5 L12.64 360.5 L12.64 341.45" class="st4"/>
				<text x="2.81" y="355.74" class="st5" v:langID="1033"><v:paragraph v:horizAlign="1"/><v:tabList/>x</text>			</g>
			<g id="shape111-244" v:mID="111" v:groupContext="shape" v:layerMember="0" transform="translate(0,-9)">
				<title>Dynamic connector</title>
				<path d="M9 360.5 L9 348.54" class="st6"/>
			</g>
			<g id="shape112-249" v:mID="112" v:groupContext="shape" v:layerMember="0" transform="translate(9,0)">
				<title>Dynamic connector.36</title>
				<path d="M0 351.5 L11.96 351.5" class="st6"/>
			</g>
		</g>
	</g>
</svg>
